<?xml version="1.0" encoding="UTF-8" standalone="no"?>
<!-- Created with Inkscape (http://www.inkscape.org/) -->

<svg
   width="2048"
   height="32"
   viewBox="0 0 2048 32"
   version="1.1"
   id="svg5"
   inkscape:version="1.2.2 (b0a8486541, 2022-12-01)"
   sodipodi:docname="icons.svg"
   xmlns:inkscape="http://www.inkscape.org/namespaces/inkscape"
   xmlns:sodipodi="http://sodipodi.sourceforge.net/DTD/sodipodi-0.dtd"
   xmlns:xlink="http://www.w3.org/1999/xlink"
   xmlns="http://www.w3.org/2000/svg"
   xmlns:svg="http://www.w3.org/2000/svg">
  <sodipodi:namedview
     id="namedview7"
     pagecolor="#ffffff"
     bordercolor="#666666"
     borderopacity="1.0"
     inkscape:pageshadow="2"
     inkscape:pageopacity="0.0"
     inkscape:pagecheckerboard="0"
     inkscape:document-units="px"
     showgrid="true"
     inkscape:zoom="11.313709"
     inkscape:cx="-19.754796"
     inkscape:cy="6.7617086"
     inkscape:window-width="2510"
     inkscape:window-height="1374"
     inkscape:window-x="0"
     inkscape:window-y="0"
     inkscape:window-maximized="1"
     inkscape:current-layer="layer1"
     inkscape:snap-global="false"
     inkscape:showpageshadow="2"
     inkscape:deskcolor="#d1d1d1">
    <inkscape:grid
       type="xygrid"
       id="grid824"
       empspacing="32"
       empcolor="#0000af"
       empopacity="0.25098039" />
  </sodipodi:namedview>
  <defs
     id="defs2">
    <linearGradient
       inkscape:collect="always"
       id="linearGradient9726">
      <stop
         style="stop-color:#b6865d;stop-opacity:1;"
         offset="0"
         id="stop9722" />
      <stop
         style="stop-color:#f8e4c8;stop-opacity:1;"
         offset="1"
         id="stop9724" />
    </linearGradient>
    <linearGradient
       inkscape:collect="always"
       id="linearGradient8731">
      <stop
         style="stop-color:#bd9674;stop-opacity:1;"
         offset="0"
         id="stop8727" />
      <stop
         style="stop-color:#ffe1bc;stop-opacity:1;"
         offset="1"
         id="stop8729" />
    </linearGradient>
    <linearGradient
       inkscape:collect="always"
       xlink:href="#linearGradient8731"
       id="linearGradient8733"
       x1="-7.6418457"
       y1="25.14917"
       x2="-14.178959"
       y2="10.610352"
       gradientUnits="userSpaceOnUse"
       gradientTransform="translate(20.775513,0.37463379)" />
    <linearGradient
       inkscape:collect="always"
       xlink:href="#linearGradient9726"
       id="linearGradient9728"
       x1="11.099121"
       y1="26.736816"
       x2="3.0596905"
       y2="10.031616"
       gradientUnits="userSpaceOnUse" />
  </defs>
  <g
     inkscape:groupmode="layer"
     id="layer2"
     inkscape:label="Background"
     style="display:inline;opacity:1;stroke:none;stroke-width:0.00657057">
    <image
       width="1728"
       height="32"
       preserveAspectRatio="none"
       xlink:href="Icons-16.png"
       id="image855"
       x="0"
       y="0"
       style="display:inline;stroke:none;stroke-width:0.00657057;image-rendering:optimizeSpeed" />
  </g>
  <g
     inkscape:label="Foreground"
     inkscape:groupmode="layer"
     id="layer1"
     style="display:inline">
    <path
       style="fill:#2101ff;stroke:none;stroke-width:1px;stroke-linecap:butt;stroke-linejoin:round;stroke-opacity:1;fill-opacity:1"
       d="m 561,28 5,-7.984375 h -4 V 4 h -2 v 16.015625 h -4 z"
       id="path950"
       sodipodi:nodetypes="cccccccc" />
    <path
       style="fill:#ff0000;fill-opacity:1;stroke:none;stroke-width:1px;stroke-linecap:butt;stroke-linejoin:miter;stroke-opacity:1"
       d="M 530,7.9360592 C 529.95994,10.935792 529.78574,19.991282 527,20 c -2.78574,0.0087 -2.97973,-10.0639408 -2.97973,-12.0639408 0,-2 0.77486,-3.964839 2.98755,-3.9496576 2.21269,0.015181 3.01864,1.9687131 2.99218,3.9496576 z"
       id="path6702"
       sodipodi:nodetypes="szszs" />
    <ellipse
       style="fill:#ff0000;fill-opacity:1;stroke:none;stroke-width:0.666667;stroke-linecap:round;stroke-linejoin:round;-inkscape-stroke:none;stop-color:#000000"
       id="path7773"
       cx="527.01001"
       cy="25.030151"
       rx="2.5288002"
       ry="2.53567" />
    <path
       style="display:inline;opacity:0.492278;fill:#000000;fill-opacity:1;stroke:none;stroke-width:1px;stroke-linecap:butt;stroke-linejoin:miter;stroke-opacity:1"
       d="m 497.94739,7.8797049 c -0.0401,2.9997331 -0.21426,12.0552231 -3,12.0639411 -2.78574,0.0087 -2.97973,-10.0639411 -2.97973,-12.0639411 0,-2 0.77486,-3.964839 2.98755,-3.949657 2.21269,0.01518 3.01864,1.968713 2.99218,3.949657 z"
       id="path6702-3"
       sodipodi:nodetypes="szszs" />
    <ellipse
       style="display:inline;opacity:0.492278;fill:#000000;fill-opacity:1;stroke:none;stroke-width:0.666667;stroke-linecap:round;stroke-linejoin:round;-inkscape-stroke:none;stop-color:#000000"
       id="path7773-6"
       cx="494.89487"
       cy="25.098799"
       rx="2.5288002"
       ry="2.53567" />
    <path
       style="opacity:1;fill:none;fill-opacity:1;stroke:#000000;stroke-width:2;stroke-dasharray:none;stroke-opacity:1"
       d="m 462.99801,3.9987095 0.0278,16.9737815 c -0.10572,6.047977 -5.14475,6.025208 -6.04188,6.039274 -0.89713,0.01407 -6.07311,0.0899 -6.0037,-6.025782 l 0.0297,-13.9821222 c 0.26361,-2.6081846 0.96376,-4.0324505 3.99253,-4.0047855 3.02877,0.027665 3.8059,1.2563404 3.98852,4.0187988 l 0.008,13.9717659 c 0,0 0.0129,2.00437 -2.00229,2.007038 -2.01515,0.0027 -2.00846,-1.973115 -2.00846,-1.973115 l 0.007,-14.0340009"
       id="path4200"
       sodipodi:nodetypes="ccscczcczcc" />
    <path
       style="opacity:1;fill:url(#linearGradient8733);fill-opacity:1;stroke:none;stroke-width:2;stroke-linejoin:round;stroke-dasharray:none;stroke-opacity:1"
       d="M 4.7663577,28.990235 4.8461877,11.70752 18.432614,4.8452148 18.673947,23.261963 Z"
       id="path8702" />
    <path
       style="opacity:1;fill:url(#linearGradient9728);fill-opacity:1;stroke:none;stroke-width:2;stroke-linejoin:round;stroke-dasharray:none;stroke-opacity:1"
       d="M 1.243042,28.039429 1.0947266,10.122925 13.143921,3.8237305 c 0,0 -0.07947,-1.6038818 0.101317,-1.6038818 0.180786,0 3.341187,-1.1639405 3.341187,-1.1639405 l 1.115478,3.7641602 -12.8018796,6.5030516 -0.0022,17.544312 z"
       id="path6927"
       sodipodi:nodetypes="cccsccccc" />
    <path
       style="opacity:1;fill:none;fill-opacity:1;stroke:#a5a5a5;stroke-width:2;stroke-linejoin:round;stroke-dasharray:none;stroke-opacity:1"
       d="M 4.9577637,28.991333 4.9644775,11.302734 18.494629,4.7340088"
       id="path5791" />
    <path
       style="opacity:1;fill:none;fill-opacity:1;stroke:#000000;stroke-width:2;stroke-dasharray:none;stroke-opacity:1;stroke-linejoin:round"
       d="M 0.98034244,27.97064 1.000109,9.9995792 12.970554,3.9960257 l 0.01874,-1.9820597 3.990495,-1.0087418 6.4e-5,2.9809153 2.031047,1.0304708 -0.0072,17.9788547 -14.0032846,6.002603 z"
       id="path5789"
       sodipodi:nodetypes="cccccccccc" />
  </g>
</svg>
